<svg width="138" height="40" viewBox="0 0 138 40" fill="none" xmlns="http://www.w3.org/2000/svg">
<g clip-path="url(#clip0_129_77)">
<path d="M49.7576 29H61.2772V25.7673H53.2703V10.6727H49.7576V29Z" fill="#010101"/>
<path d="M68.1997 29.3818C69.5945 29.3818 70.8214 29.0763 71.8804 28.4654C72.9479 27.846 73.7788 26.9933 74.3729 25.9073C74.9755 24.8127 75.2769 23.5527 75.2769 22.1273C75.2769 20.7103 74.9798 19.4588 74.3858 18.3727C73.7917 17.2782 72.9608 16.4212 71.8933 15.8018C70.8343 15.1824 69.6032 14.8727 68.1997 14.8727C66.8222 14.8727 65.6039 15.1782 64.545 15.7891C63.486 16.4 62.6552 17.2527 62.0524 18.3473C61.4498 19.4333 61.1484 20.6933 61.1484 22.1273C61.1484 23.5442 61.4412 24.8 62.0267 25.8945C62.6207 26.9806 63.4473 27.8333 64.5062 28.4527C65.5652 29.0721 66.7964 29.3818 68.1997 29.3818ZM68.1997 26.1491C67.1063 26.1491 66.2755 25.7885 65.7073 25.0673C65.1476 24.3376 64.8678 23.3576 64.8678 22.1273C64.8678 20.9309 65.1347 19.9636 65.6685 19.2254C66.2109 18.4788 67.0546 18.1054 68.1997 18.1054C69.3104 18.1054 70.1455 18.4703 70.7051 19.2C71.2734 19.9297 71.5575 20.9054 71.5575 22.1273C71.5575 23.3067 71.2777 24.2739 70.718 25.0291C70.167 25.7757 69.3276 26.1491 68.1997 26.1491Z" fill="#010101"/>
<path d="M82.2235 29.3818C82.8779 29.3818 83.4806 29.3054 84.0316 29.1527C84.5913 29 85.0992 28.7836 85.5555 28.5036V29.8909C85.5728 30.4 85.4392 30.8242 85.1551 31.1636C84.8796 31.5115 84.5095 31.7703 84.0445 31.94C83.5796 32.1182 83.0845 32.2073 82.5594 32.2073C82.0686 32.2073 81.6123 32.1012 81.1905 31.8891C80.7772 31.677 80.4586 31.3673 80.2347 30.96L76.9804 32.5127C77.5141 33.4036 78.276 34.1206 79.2662 34.6636C80.2563 35.2151 81.3454 35.4909 82.5335 35.4909C83.5581 35.4909 84.5095 35.3551 85.3876 35.0836C86.2658 34.8206 87.0063 34.4176 87.6089 33.8745C88.2202 33.3315 88.6378 32.64 88.8616 31.8C88.9391 31.503 88.9907 31.2018 89.0166 30.8963C89.051 30.5994 89.0682 30.2812 89.0682 29.9418V15.2545H85.9946V16.0182C85.521 15.6533 84.9829 15.3733 84.3803 15.1782C83.7862 14.9745 83.1276 14.8727 82.4044 14.8727C81.0699 14.8727 79.9076 15.1867 78.9175 15.8145C77.9274 16.4424 77.1568 17.3036 76.6058 18.3982C76.0634 19.4842 75.7922 20.7273 75.7922 22.1273C75.7922 23.5018 76.0591 24.7363 76.5929 25.8309C77.1353 26.9254 77.8886 27.7909 78.8529 28.4273C79.8172 29.0636 80.9407 29.3818 82.2235 29.3818ZM82.7918 26.3018C82.0342 26.3018 81.4143 26.1151 80.9321 25.7418C80.45 25.3685 80.0927 24.8679 79.8603 24.24C79.6278 23.6036 79.5115 22.8994 79.5115 22.1273C79.5115 21.3636 79.6321 20.6679 79.8732 20.04C80.1143 19.4036 80.4844 18.8988 80.9838 18.5254C81.4917 18.1436 82.1375 17.9527 82.9209 17.9527C84.023 17.9527 84.8107 18.3388 85.2843 19.1109C85.7579 19.8745 85.9946 20.88 85.9946 22.1273C85.9946 23.3745 85.7535 24.3842 85.2714 25.1563C84.7978 25.92 83.9714 26.3018 82.7918 26.3018Z" fill="#010101"/>
<path d="M97.4115 29.3818C98.8063 29.3818 100.033 29.0763 101.092 28.4654C102.16 27.846 102.991 26.9933 103.584 25.9073C104.187 24.8127 104.488 23.5527 104.488 22.1273C104.488 20.7103 104.192 19.4588 103.597 18.3727C103.004 17.2782 102.173 16.4212 101.105 15.8018C100.046 15.1824 98.8149 14.8727 97.4115 14.8727C96.034 14.8727 94.8157 15.1782 93.7568 15.7891C92.6978 16.4 91.867 17.2527 91.2642 18.3473C90.6616 19.4333 90.3602 20.6933 90.3602 22.1273C90.3602 23.5442 90.653 24.8 91.2385 25.8945C91.8325 26.9806 92.6591 27.8333 93.718 28.4527C94.777 29.0721 96.0082 29.3818 97.4115 29.3818ZM97.4115 26.1491C96.3181 26.1491 95.4872 25.7885 94.919 25.0673C94.3594 24.3376 94.0796 23.3576 94.0796 22.1273C94.0796 20.9309 94.3465 19.9636 94.8803 19.2254C95.4227 18.4788 96.2664 18.1054 97.4115 18.1054C98.5222 18.1054 99.3573 18.4703 99.9169 19.2C100.485 19.9297 100.769 20.9054 100.769 22.1273C100.769 23.3067 100.489 24.2739 99.9298 25.0291C99.3788 25.7757 98.5394 26.1491 97.4115 26.1491Z" fill="#010101"/>
<path d="M106.037 13.3454H109.55V10.2909H106.037V13.3454ZM106.037 29H109.55V15.2545H106.037V29Z" fill="#010101"/>
<path d="M111.846 35.1091H115.384V28.5036C115.841 28.7836 116.344 29 116.895 29.1527C117.455 29.3054 118.062 29.3818 118.717 29.3818C119.999 29.3818 121.123 29.0636 122.087 28.4273C123.051 27.7909 123.8 26.9254 124.334 25.8309C124.877 24.7363 125.148 23.5018 125.148 22.1273C125.148 20.7273 124.873 19.4842 124.322 18.3982C123.779 17.3036 123.013 16.4424 122.022 15.8145C121.032 15.1867 119.87 14.8727 118.536 14.8727C117.812 14.8727 117.15 14.9745 116.547 15.1782C115.952 15.3733 115.419 15.6533 114.946 16.0182V15.2545H111.846V35.1091ZM118.148 26.3018C116.977 26.3018 116.151 25.92 115.668 25.1563C115.186 24.3842 114.946 23.3745 114.946 22.1273C114.946 20.88 115.182 19.8745 115.656 19.1109C116.138 18.3388 116.926 17.9527 118.019 17.9527C118.803 17.9527 119.444 18.1436 119.943 18.5254C120.452 18.8988 120.826 19.4036 121.067 20.04C121.308 20.6679 121.429 21.3636 121.429 22.1273C121.429 22.8994 121.312 23.6036 121.08 24.24C120.847 24.8679 120.49 25.3685 120.008 25.7418C119.526 26.1151 118.906 26.3018 118.148 26.3018Z" fill="#010101"/>
<path d="M131.512 29.3818C133.336 29.3818 134.766 28.9788 135.799 28.1727C136.832 27.3666 137.349 26.2594 137.349 24.8509C137.349 23.7818 137.013 22.9376 136.342 22.3182C135.678 21.6988 134.551 21.1854 132.958 20.7782C131.873 20.5066 131.063 20.286 130.53 20.1163C130.005 19.9467 129.656 19.7812 129.484 19.62C129.32 19.4588 129.239 19.2594 129.239 19.0218C129.239 18.623 129.432 18.3176 129.819 18.1054C130.216 17.8933 130.737 17.8085 131.382 17.8509C132.751 17.9527 133.501 18.5297 133.63 19.5818L137.22 18.9454C137.039 17.6982 136.419 16.7097 135.36 15.98C134.301 15.2418 132.95 14.8727 131.305 14.8727C129.617 14.8727 128.27 15.263 127.262 16.0436C126.256 16.8242 125.751 17.8763 125.751 19.2C125.751 20.2521 126.101 21.0836 126.798 21.6945C127.495 22.297 128.696 22.8145 130.401 23.2473C131.408 23.5103 132.148 23.7224 132.622 23.8836C133.104 24.0448 133.415 24.2103 133.552 24.38C133.69 24.5412 133.759 24.7576 133.759 25.0291C133.759 25.4618 133.586 25.8012 133.242 26.0473C132.898 26.2848 132.407 26.4036 131.77 26.4036C130.994 26.4036 130.353 26.2212 129.846 25.8563C129.347 25.4915 129.023 24.9867 128.877 24.3418L125.287 24.8763C125.519 26.3103 126.174 27.4218 127.25 28.2109C128.335 28.9915 129.756 29.3818 131.512 29.3818Z" fill="#010101"/>
<path d="M20.2941 0C9.08598 0 0 8.9543 0 20C11.2081 20 20.2941 11.0457 20.2941 0Z" fill="#FE6759"/>
<path d="M20.2941 40C31.5023 40 40.5882 31.0457 40.5882 20C29.3801 20 20.2941 28.9543 20.2941 40Z" fill="#FE6759"/>
<path d="M20.2941 0C31.5023 0 40.5882 8.9543 40.5882 20C29.3801 20 20.2941 11.0457 20.2941 0Z" fill="#FE6759"/>
<path d="M20.2941 40C9.08598 40 -9.79846e-07 31.0457 0 20C11.2081 20 20.2941 28.9543 20.2941 40Z" fill="#FE6759"/>
</g>
<defs>
<clipPath id="clip0_129_77">
<rect width="138" height="40" fill="white"/>
</clipPath>
</defs>
</svg>
