<svg width="189" height="54" viewBox="0 0 189 54" fill="none" xmlns="http://www.w3.org/2000/svg">
<g clip-path="url(#clip0_146_1145)">
<path d="M68.1462 39.1501H83.9232V34.7859H72.9571V14.4082H68.1462V39.1501Z" fill="#FAFAFA"/>
<path d="M93.4039 39.6654C95.3142 39.6654 96.9945 39.253 98.4448 38.4283C99.9069 37.5921 101.045 36.4409 101.858 34.9748C102.684 33.4971 103.097 31.7961 103.097 29.8718C103.097 27.9589 102.69 26.2694 101.876 24.8031C101.062 23.3255 99.9246 22.1686 98.4624 21.3324C97.0121 20.4962 95.326 20.0781 93.4039 20.0781C91.5172 20.0781 89.8488 20.4905 88.3985 21.3153C86.9482 22.14 85.8103 23.2911 84.9848 24.7688C84.1594 26.2349 83.7467 27.9359 83.7467 29.8718C83.7467 31.7846 84.1476 33.48 84.9495 34.9576C85.763 36.4238 86.8951 37.5749 88.3454 38.4111C89.7958 39.2473 91.482 39.6654 93.4039 39.6654ZM93.4039 35.3013C91.9064 35.3013 90.7686 34.8145 89.9904 33.8408C89.2238 32.8557 88.8407 31.5327 88.8407 29.8718C88.8407 28.2567 89.2062 26.9508 89.9373 25.9543C90.6801 24.9464 91.8356 24.4423 93.4039 24.4423C94.9251 24.4423 96.0688 24.9349 96.8352 25.92C97.6135 26.9051 98.0026 28.2223 98.0026 29.8718C98.0026 31.464 97.6194 32.7697 96.8529 33.7893C96.0983 34.7972 94.9486 35.3013 93.4039 35.3013Z" fill="#FAFAFA"/>
<path d="M112.61 39.6654C113.507 39.6654 114.332 39.5623 115.087 39.3561C115.853 39.15 116.549 38.8578 117.174 38.4798V40.3527C117.197 41.04 117.015 41.6127 116.625 42.0708C116.248 42.5405 115.741 42.8899 115.104 43.119C114.468 43.3596 113.79 43.4798 113.07 43.4798C112.398 43.4798 111.773 43.3366 111.196 43.0503C110.63 42.7639 110.193 42.3458 109.887 41.796L105.43 43.8921C106.161 45.0948 107.204 46.0628 108.56 46.7958C109.916 47.5404 111.408 47.9127 113.035 47.9127C114.438 47.9127 115.741 47.7294 116.944 47.3628C118.147 47.0078 119.161 46.4637 119.986 45.7306C120.823 44.9975 121.395 44.064 121.702 42.93C121.808 42.529 121.879 42.1224 121.914 41.71C121.961 41.3092 121.985 40.8796 121.985 40.4214V20.5936H117.775V21.6246C117.127 21.1319 116.39 20.7539 115.564 20.4906C114.751 20.2156 113.849 20.0781 112.858 20.0781C111.031 20.0781 109.439 20.502 108.083 21.3496C106.727 22.1972 105.671 23.3598 104.917 24.8375C104.174 26.3036 103.802 27.9818 103.802 29.8718C103.802 31.7274 104.168 33.394 104.899 34.8717C105.642 36.3493 106.673 37.5177 107.994 38.3768C109.315 39.2358 110.854 39.6654 112.61 39.6654ZM113.389 35.5074C112.351 35.5074 111.502 35.2554 110.842 34.7514C110.182 34.2475 109.692 33.5716 109.374 32.724C109.055 31.8648 108.896 30.9142 108.896 29.8718C108.896 28.8408 109.061 27.9016 109.391 27.054C109.722 26.1948 110.229 25.5134 110.913 25.0093C111.608 24.4938 112.493 24.2361 113.566 24.2361C115.075 24.2361 116.154 24.7574 116.802 25.7997C117.451 26.8306 117.775 28.188 117.775 29.8718C117.775 31.5556 117.445 32.9187 116.785 33.961C116.136 34.992 115.004 35.5074 113.389 35.5074Z" fill="#FAFAFA"/>
<path d="M133.411 39.6654C135.322 39.6654 137.002 39.253 138.452 38.4283C139.914 37.5921 141.052 36.4409 141.865 34.9748C142.691 33.4971 143.104 31.7961 143.104 29.8718C143.104 27.9589 142.698 26.2694 141.883 24.8031C141.07 23.3255 139.932 22.1686 138.47 21.3324C137.02 20.4962 135.333 20.0781 133.411 20.0781C131.525 20.0781 129.856 20.4905 128.406 21.3153C126.956 22.14 125.818 23.2911 124.992 24.7688C124.167 26.2349 123.754 27.9359 123.754 29.8718C123.754 31.7846 124.155 33.48 124.957 34.9576C125.771 36.4238 126.903 37.5749 128.353 38.4111C129.803 39.2473 131.49 39.6654 133.411 39.6654ZM133.411 35.3013C131.914 35.3013 130.776 34.8145 129.998 33.8408C129.231 32.8557 128.848 31.5327 128.848 29.8718C128.848 28.2567 129.214 26.9508 129.945 25.9543C130.688 24.9464 131.843 24.4423 133.411 24.4423C134.933 24.4423 136.076 24.9349 136.843 25.92C137.621 26.9051 138.01 28.2223 138.01 29.8718C138.01 31.464 137.627 32.7697 136.86 33.7893C136.106 34.7972 134.956 35.3013 133.411 35.3013Z" fill="#FAFAFA"/>
<path d="M145.224 18.0164H150.035V13.8928H145.224V18.0164ZM145.224 39.1501H150.035V20.5937H145.224V39.1501Z" fill="#FAFAFA"/>
<path d="M153.18 47.3973H158.026V38.4798C158.652 38.8578 159.341 39.15 160.095 39.3561C160.863 39.5623 161.694 39.6654 162.59 39.6654C164.347 39.6654 165.886 39.2358 167.207 38.3768C168.527 37.5177 169.552 36.3493 170.283 34.8717C171.027 33.394 171.398 31.7274 171.398 29.8718C171.398 27.9818 171.021 26.3036 170.267 24.8375C169.523 23.3598 168.474 22.1972 167.118 21.3496C165.761 20.502 164.17 20.0781 162.343 20.0781C161.352 20.0781 160.444 20.2156 159.619 20.4906C158.804 20.7539 158.073 21.1319 157.426 21.6246V20.5936H153.18V47.3973ZM161.812 35.5074C160.208 35.5074 159.077 34.992 158.415 33.961C157.755 32.9187 157.426 31.5556 157.426 29.8718C157.426 28.188 157.75 26.8306 158.399 25.7997C159.059 24.7574 160.137 24.2361 161.635 24.2361C162.708 24.2361 163.586 24.4938 164.27 25.0093C164.966 25.5134 165.479 26.1948 165.809 27.054C166.139 27.9016 166.305 28.8408 166.305 29.8718C166.305 30.9142 166.145 31.8648 165.827 32.724C165.508 33.5716 165.019 34.2475 164.359 34.7514C163.699 35.2554 162.85 35.5074 161.812 35.5074Z" fill="#FAFAFA"/>
<path d="M180.114 39.6654C182.613 39.6654 184.571 39.1214 185.986 38.0331C187.4 36.9449 188.108 35.4502 188.108 33.5487C188.108 32.1054 187.648 30.9657 186.729 30.1295C185.82 29.2934 184.276 28.6003 182.095 28.0505C180.609 27.6839 179.5 27.3861 178.769 27.157C178.051 26.928 177.572 26.7046 177.336 26.487C177.112 26.2694 177.001 26.0002 177.001 25.6794C177.001 25.141 177.265 24.7287 177.796 24.4423C178.34 24.1559 179.052 24.0415 179.936 24.0987C181.811 24.2361 182.838 25.0151 183.015 26.4354L187.931 25.5763C187.684 23.8926 186.835 22.5581 185.384 21.573C183.935 20.5764 182.083 20.0781 179.831 20.0781C177.52 20.0781 175.674 20.605 174.294 21.6588C172.916 22.7127 172.225 24.133 172.225 25.92C172.225 27.3403 172.703 28.4628 173.658 29.2876C174.612 30.1009 176.258 30.7996 178.592 31.3838C179.972 31.7389 180.986 32.0252 181.635 32.2428C182.295 32.4605 182.72 32.6839 182.908 32.913C183.097 33.1306 183.191 33.4227 183.191 33.7893C183.191 34.3734 182.955 34.8316 182.484 35.1638C182.013 35.4845 181.34 35.6448 180.467 35.6448C179.405 35.6448 178.527 35.3986 177.832 34.906C177.149 34.4135 176.705 33.732 176.505 32.8614L171.588 33.583C171.907 35.5189 172.803 37.0194 174.277 38.0847C175.763 39.1385 177.709 39.6654 180.114 39.6654Z" fill="#FAFAFA"/>
<path d="M27.7941 0C12.4438 0 0 12.0883 0 27C15.3503 27 27.7941 14.9117 27.7941 0Z" fill="#FE6759"/>
<path d="M27.7941 54C43.1444 54 55.5882 41.9117 55.5882 27C40.238 27 27.7941 39.0883 27.7941 54Z" fill="#FE6759"/>
<path d="M27.7941 0C43.1444 0 55.5882 12.0883 55.5882 27C40.238 27 27.7941 14.9117 27.7941 0Z" fill="#FE6759"/>
<path d="M27.7941 54C12.4438 54 -1.34196e-06 41.9117 0 27C15.3503 27 27.7941 39.0883 27.7941 54Z" fill="#FE6759"/>
</g>
<defs>
<clipPath id="clip0_146_1145">
<rect width="189" height="54" fill="white"/>
</clipPath>
</defs>
</svg>
